<svg id="Capa_1" enable-background="new 0 0 512 512" height="512" viewBox="0 0 512 512" width="512" xmlns="http://www.w3.org/2000/svg"><path d="m461.874 256c0-11.534-.956-22.843-2.782-33.859-.931-5.616 1.444-11.267 6.05-14.611l30.174-21.91c6.269-4.552 8.088-13.103 4.214-19.813l-43.656-75.615c-3.874-6.709-12.189-9.41-19.265-6.257l-34.085 15.188c-5.205 2.319-11.294 1.547-15.692-2.076-17.38-14.32-37.149-25.842-58.62-33.885-5.327-1.996-9.027-6.886-9.62-12.544l-3.884-37.063c-.808-7.704-7.304-13.555-15.052-13.555h-87.313c-7.747 0-14.243 5.851-15.051 13.556l-3.884 37.063c-.593 5.658-4.293 10.548-9.62 12.544-21.471 8.043-41.24 19.564-58.62 33.885-4.397 3.623-10.487 4.395-15.692 2.076l-34.085-15.188c-7.077-3.153-15.392-.453-19.265 6.257l-43.656 75.615c-3.874 6.709-2.055 15.261 4.214 19.813l30.174 21.909c4.606 3.344 6.981 8.995 6.05 14.611-1.826 11.016-2.782 22.326-2.782 33.859s.956 22.844 2.782 33.859c.931 5.616-1.444 11.267-6.05 14.611l-30.174 21.91c-6.269 4.552-8.088 13.103-4.214 19.813l43.656 75.615c3.874 6.709 12.189 9.41 19.265 6.257l34.085-15.188c5.205-2.319 11.294-1.547 15.692 2.076 17.38 14.32 37.149 25.842 58.62 33.885 5.327 1.996 9.027 6.886 9.62 12.544l3.884 37.063c.808 7.704 7.304 13.555 15.051 13.555h87.313c7.747 0 14.243-5.851 15.051-13.556l3.884-37.063c.593-5.658 4.293-10.548 9.62-12.544 21.471-8.043 41.24-19.564 58.62-33.885 4.397-3.623 10.487-4.395 15.692-2.076l34.085 15.188c7.077 3.153 15.392.453 19.265-6.257l43.656-75.615c3.874-6.709 2.055-15.261-4.214-19.813l-30.174-21.909c-4.606-3.344-6.981-8.996-6.05-14.611 1.827-11.016 2.783-22.325 2.783-33.859z" fill="#dfeaef"/><g fill="#b4d0d5"><path d="m238.634 0c-7.742 0-14.24 5.849-15.045 13.562l-3.885 37.056c-.593 5.665-4.295 10.553-9.621 12.545-6.428 2.402-16.84 2.133-28.763.961.819-.339 1.639-.65 2.472-.961 5.326-1.992 9.027-6.88 9.621-12.545l3.885-37.056c.805-7.713 7.304-13.562 15.046-13.562z"/><path d="m82.42 421.807-43.656-75.615c-3.874-6.709-2.055-15.261 4.214-19.813l30.174-21.909c4.606-3.344 6.981-8.995 6.05-14.611-1.826-11.016-2.782-22.326-2.782-33.86s.956-22.844 2.782-33.859c.931-5.616-1.444-11.267-6.05-14.611l-30.174-21.909c-6.269-4.552-8.088-13.103-4.214-19.813l43.656-75.614c.495-.858 1.065-1.647 1.693-2.37l-8.722-3.887c-7.077-3.153-15.392-.453-19.265 6.257l-43.656 75.615c-3.874 6.709-2.055 15.261 4.214 19.813l30.174 21.909c4.606 3.344 6.981 8.995 6.05 14.611-1.826 11.016-2.782 22.326-2.782 33.859s.956 22.843 2.782 33.86c.931 5.616-1.444 11.267-6.05 14.611l-30.174 21.909c-6.269 4.552-8.088 13.103-4.214 19.813l43.656 75.615c3.874 6.709 12.189 9.41 19.265 6.257l8.722-3.887c-.628-.723-1.198-1.513-1.693-2.371z"/><path d="m238.634 511.998h-26.291c-7.742 0-14.24-5.849-15.046-13.548l-3.885-37.07c-.593-5.651-4.295-10.553-9.621-12.545-.311-.113-.636-.24-.947-.367 10.878-1.54 20.654-2.091 27.237.367 5.326 1.992 9.027 6.894 9.621 12.545l3.885 37.07c.807 7.7 7.306 13.548 15.047 13.548z"/><circle cx="256.773" cy="256" r="128.855"/></g><path d="m384.655 205.831c-27.663-27.664-72.676-27.664-100.339 0l-28.316 28.316-28.316-28.317c-27.664-27.663-72.676-27.662-100.339.001-13.401 13.401-20.781 31.218-20.781 50.17s7.38 36.769 20.781 50.17c13.831 13.832 32 20.747 50.169 20.747s36.338-6.915 50.17-20.747l28.316-28.318 28.316 28.316c13.831 13.832 32 20.747 50.169 20.747s36.338-6.916 50.169-20.748c27.664-27.662 27.664-72.674.001-100.337zm-178.824 78.485c-15.614 15.614-41.019 15.614-56.632 0-7.563-7.563-11.729-17.619-11.729-28.315s4.165-20.753 11.729-28.316c7.807-7.806 18.061-11.71 28.316-11.71s20.51 3.903 28.316 11.71l28.316 28.315zm156.97 0c-15.614 15.613-41.018 15.613-56.632 0l-28.315-28.316 28.316-28.316c15.613-15.612 41.018-15.614 56.632 0 7.563 7.563 11.728 17.62 11.728 28.316s-4.165 20.753-11.729 28.316z" fill="#dd636e"/></svg>